<?xml version="1.0" encoding="UTF-8"?>
<svg version="1.1" xmlns="http://www.w3.org/2000/svg" width="1024" height="1024">
<path d="M0 0 C337.92 0 675.84 0 1024 0 C1024 337.92 1024 675.84 1024 1024 C686.08 1024 348.16 1024 0 1024 C0 686.08 0 348.16 0 0 Z " fill="#000000" transform="translate(0,0)"/>
<path d="M0 0 C0.41572266 1.82337891 0.41572266 1.82337891 0.83984375 3.68359375 C1.20553898 5.26827307 1.57143475 6.85290612 1.9375 8.4375 C2.11990234 9.23994141 2.30230469 10.04238281 2.49023438 10.86914062 C3.09661008 14.74952729 3.09661008 14.74952729 5 18 C5.52044979 20.66470293 5.99571275 23.32208957 6.4375 26 C7.16539216 30.36735293 7.91127615 34.70344163 8.9375 39.01171875 C13.34136416 58.4307627 15.83296971 79.104836 16 99 C16.01873853 100.41146461 16.03798782 101.82292249 16.05761719 103.234375 C16.37312055 127.44115796 16.62300575 151.62129675 11.53759766 175.41748047 C10.841143 178.7631196 10.19314689 182.1178001 9.54296875 185.47265625 C9.14274691 187.52420531 8.7416951 189.57558989 8.34020996 191.62689209 C8.07374992 192.99032909 7.80835246 194.35397422 7.54406738 195.71783447 C7.16839252 197.65008829 6.78547803 199.58093017 6.40234375 201.51171875 C6.18054443 202.64053467 5.95874512 203.76935059 5.73022461 204.93237305 C5.05139814 207.78407968 4.13424581 210.30458608 3 213 C2.41572728 215.22355923 1.85563116 217.45353518 1.3125 219.6875 C-0.82442745 228.06036078 -3.91475863 235.98647735 -7.17578125 243.97705078 C-7.88943275 245.72862551 -8.58684733 247.48679917 -9.28125 249.24609375 C-24.25243364 286.52231788 -49.93717518 321.61108373 -82 346 C-82.52964355 346.41137207 -83.05928711 346.82274414 -83.60498047 347.24658203 C-106.04183327 364.62887298 -131.6307198 378.63766726 -158.68554688 387.24853516 C-160.91641781 387.97286224 -163.12205096 388.74666668 -165.328125 389.54296875 C-178.27884222 394.1695966 -191.5284002 397.29404988 -205 400 C-206.02706055 400.21462891 -207.05412109 400.42925781 -208.11230469 400.65039062 C-225.8853357 404.21518194 -243.62225798 404.39168263 -261.6875 404.4375 C-263.42064957 404.44689606 -263.42064957 404.44689606 -265.18881226 404.45648193 C-296.5140634 404.56372499 -326.24876476 400.11729974 -356.07495117 390.58496094 C-356.71021729 390.39192383 -357.3454834 390.19888672 -358 390 C-358.70092773 389.78110107 -359.40185547 389.56220215 -360.12402344 389.33666992 C-360.7430957 389.22556885 -361.36216797 389.11446777 -362 389 C-373.19928181 396.82840887 -381.64122444 411.34488452 -389.515625 422.35546875 C-389.91620117 422.90533447 -390.31677734 423.4552002 -390.72949219 424.02172852 C-392.10701417 426.0640855 -392.10701417 426.0640855 -393.24707031 428.72631836 C-395.58288084 433.38902706 -397.64968246 436.78817643 -402.69824219 438.53735352 C-407.15692571 439.75894649 -411.68726555 440.4781713 -416.25 441.1875 C-417.83149284 441.47037259 -419.41223969 441.75744967 -420.9921875 442.04882812 C-431.80806231 444 -431.80806231 444 -436 444 C-435.49658037 439.27827103 -433.54109115 436.67961028 -430.625 433 C-429.9599646 432.15622803 -429.9599646 432.15622803 -429.28149414 431.29541016 C-425.19290691 426.14692485 -420.94498898 421.13275453 -416.66796875 416.140625 C-414.13791244 413.18083319 -411.69106065 410.15871204 -409.25 407.125 C-406.23354896 403.41616073 -403.11253932 399.98627641 -399.671875 396.671875 C-397.8805621 394.8805621 -396.25977039 392.99722826 -394.625 391.0625 C-391.38548051 387.29765303 -387.83465596 384.06011134 -384.0625 380.8359375 C-382.31681998 379.28201778 -380.87166637 377.71971455 -379.375 375.9375 C-378.59125 375.298125 -377.8075 374.65875 -377 374 C-375.96673584 374.28037109 -374.93347168 374.56074219 -373.86889648 374.84960938 C-369.48180275 375.02014321 -369.1121265 374.71978922 -366.02758789 371.91992188 C-364.57205539 370.45635721 -363.13826774 368.97096187 -361.72265625 367.46875 C-360.95247665 366.68487915 -360.18229706 365.9010083 -359.38877869 365.09338379 C-356.92719827 362.58042402 -354.49455232 360.04151753 -352.0625 357.5 C-349.62831042 354.99317326 -347.18849732 352.49195231 -344.74693298 349.99230957 C-343.23086666 348.43615945 -341.72007971 346.8748417 -340.21559143 345.30749512 C-335.68110803 340.60466539 -330.9664721 336.24110321 -326 332 C-324.39231627 330.54554483 -322.78760285 329.08779105 -321.1875 327.625 C-317.72469918 324.49577173 -314.19320997 321.49499651 -310.5625 318.5625 C-306.75912497 315.48663412 -303.09917348 312.31246834 -299.5 309 C-295.06812346 304.9322153 -290.56623278 301.01616507 -285.82421875 297.3125 C-282.92953026 295.03207841 -282.92953026 295.03207841 -280.33203125 292.25 C-271.51517578 283.87339237 -263.53565993 284.11678901 -251.7578125 284.125 C-242.75079222 284.09666861 -233.88121453 283.1242583 -224.9375 282.125 C-224.11679016 282.03436279 -223.29608032 281.94372559 -222.45050049 281.8503418 C-218.42188784 281.40484494 -214.39418402 280.95205421 -210.3671875 280.4921875 C-206.59103852 280.06268846 -202.81219437 279.6665121 -199.03125 279.28125 C-181.13127989 277.39527272 -162.36185694 274.81392032 -145.33300781 268.80810547 C-142.51567485 267.83223982 -139.67314626 266.96420343 -136.8203125 266.09765625 C-135.72589844 265.76443359 -134.63148438 265.43121094 -133.50390625 265.08789062 C-131.2595408 264.40679706 -129.01475138 263.72709893 -126.76953125 263.04882812 C-119.76000821 260.91137662 -112.85845769 258.58203799 -106 256 C-108.02167552 256.28577068 -110.04230888 256.57891787 -112.0625 256.875 C-113.18785156 257.03742188 -114.31320312 257.19984375 -115.47265625 257.3671875 C-118.98127826 257.92047143 -118.98127826 257.92047143 -122.20703125 259.00390625 C-127.31627351 260.3456743 -132.36843753 260.67893104 -137.625 261.0625 C-139.6590512 261.21748753 -141.6929154 261.37495358 -143.7265625 261.53515625 C-144.61939941 261.600979 -145.51223633 261.66680176 -146.43212891 261.73461914 C-148.99560267 261.9584561 -148.99560267 261.9584561 -151.46875 262.49560547 C-180.49194081 268.27896891 -212.62269163 265.21188504 -242 265 C-242 264.34 -242 263.68 -242 263 C-240.6015625 261.75415039 -240.6015625 261.75415039 -238.625 260.34765625 C-237.89595459 259.82461914 -237.16690918 259.30158203 -236.41577148 258.76269531 C-235.61856689 258.20163086 -234.8213623 257.64056641 -234 257.0625 C-233.17765869 256.47694336 -232.35531738 255.89138672 -231.50805664 255.28808594 C-223.73314069 249.76890632 -215.88362897 244.36221588 -208 239 C-205.98951863 237.62900113 -203.97910711 236.25789982 -201.96875 234.88671875 C-192.30087767 228.2983346 -182.62931918 221.71932959 -172.86425781 215.27563477 C-168.14244614 212.14170717 -163.59373205 208.81678388 -159.07421875 205.3984375 C-157 204 -157 204 -155 204 C-155 203.34 -155 202.68 -155 202 C-154.43941895 201.94054199 -153.87883789 201.88108398 -153.30126953 201.81982422 C-131.63553213 199.44459801 -110.49648119 195.13969174 -89.97558594 187.71142578 C-88.01357939 187.00489006 -86.04406724 186.32528221 -84.0703125 185.65234375 C-78.59252185 183.75885798 -73.27319441 181.83618434 -68.15234375 179.11328125 C-63.19774328 176.55055687 -58.07193949 174.31948452 -53 172 C-55.89619289 172.60248152 -58.7919677 173.20685752 -61.6875 173.8125 C-62.5630957 173.99482178 -63.43869141 174.17714355 -64.34082031 174.36499023 C-69.00393952 175.34297616 -73.63039682 176.39360983 -78.25 177.5625 C-93.60123328 181.12617915 -109.27138274 182.57003042 -125 182 C-118.63372345 175.55342807 -111.90274179 169.50120364 -105.0625 163.5625 C-92.84861115 152.95711805 -92.84861115 152.95711805 -82 141 C-81.24332031 140.05769531 -80.48664063 139.11539063 -79.70703125 138.14453125 C-58.4202217 111.64979206 -58.4202217 111.64979206 -49 80 C-49.53367187 81.00417969 -50.06734375 82.00835937 -50.6171875 83.04296875 C-60.62767241 101.55451134 -73.99819671 116.04114393 -88.75 130.875 C-89.44681885 131.57657227 -90.1436377 132.27814453 -90.86157227 133.00097656 C-111.30473971 153.3787375 -135.36196159 169.41692193 -159.34703064 185.25479126 C-162.63250988 187.42523166 -165.90838961 189.60860986 -169.171875 191.81201172 C-169.85443359 192.27151718 -170.53699219 192.73102264 -171.24023438 193.20445251 C-172.55076331 194.08746158 -173.85945231 194.97320944 -175.16601562 195.86207581 C-177.76665121 197.61144289 -180.01000965 199.00333655 -183 200 C-182.40917111 196.59411136 -181.53270388 193.65392236 -180.15625 190.48828125 C-177.71272204 184.52170644 -176.08262034 178.42963447 -174.5 172.1875 C-174.19956787 171.01131104 -173.89913574 169.83512207 -173.58959961 168.62329102 C-171.74088671 161.2618169 -170.02626855 153.88537831 -168.5625 146.4375 C-168.31693359 145.21873169 -168.31693359 145.21873169 -168.06640625 143.9753418 C-167.00788179 138.27927521 -166.82873905 132.78557559 -167 127 C-167.18062988 127.56807373 -167.36125977 128.13614746 -167.54736328 128.72143555 C-170.71742099 138.62711493 -173.8631237 148.39463602 -178.4375 157.7578125 C-179.56469958 160.09675163 -180.61852943 162.41550676 -181.625 164.8046875 C-187.3395149 178.29360058 -194.26769897 191.1240766 -201.33862305 203.94018555 C-202.36663112 205.833503 -203.36433358 207.74405963 -204.31176758 209.67895508 C-207.09681262 215.24732848 -209.78770594 217.78496475 -215.3125 220.5625 C-216.83580541 221.39547861 -218.35511103 222.23579894 -219.87109375 223.08203125 C-220.69206543 223.53916504 -221.51303711 223.99629883 -222.35888672 224.46728516 C-237.52584969 233.26911484 -251.80234313 243.80113183 -265.79492188 254.34179688 C-268.01782148 256.01340163 -270.24976944 257.67220995 -272.484375 259.328125 C-273.90646118 260.38513261 -275.32834567 261.44241164 -276.75 262.5 C-277.69746094 263.20237793 -277.69746094 263.20237793 -278.6640625 263.91894531 C-282.44363611 266.74754251 -286.02564186 269.71416444 -289.52832031 272.88085938 C-291 274 -291 274 -293 274 C-292.73445312 273.00742187 -292.46890625 272.01484375 -292.1953125 270.9921875 C-290.12387326 263.08171967 -288.44981353 255.32341496 -287.4921875 247.18359375 C-287 244 -287 244 -286.015625 240.80859375 C-284.67069016 235.76508808 -284.26261966 230.82005851 -283.875 225.625 C-283.79008301 224.52043457 -283.70516602 223.41586914 -283.61767578 222.27783203 C-282.60815782 207.53724475 -282.82090703 192.76552645 -283 178 C-283.19577637 178.9115686 -283.19577637 178.9115686 -283.39550781 179.84155273 C-287.79870392 200.30947441 -287.79870392 200.30947441 -290.125 210.375 C-290.41632813 211.64085937 -290.70765625 212.90671875 -291.0078125 214.2109375 C-291.93465093 217.75043858 -293.03419784 221.16180124 -294.21484375 224.62109375 C-295.59750473 228.81035014 -296.75148476 233.0642674 -297.9375 237.3125 C-302.22792816 252.49575258 -307.57246856 267.07306903 -313.5 281.6875 C-313.98597656 282.89728516 -314.47195313 284.10707031 -314.97265625 285.35351562 C-315.68228516 287.10245117 -315.68228516 287.10245117 -316.40625 288.88671875 C-316.83228516 289.94076904 -317.25832031 290.99481934 -317.69726562 292.08081055 C-320.09821622 297.46090167 -322.51587149 300.70829577 -327.1875 304.3125 C-331.45405664 307.69767586 -335.32829766 311.20934415 -339.1171875 315.11328125 C-340.94730865 316.94719933 -342.84117186 318.63248148 -344.8125 320.3125 C-352.14899327 326.63805916 -358.81481234 333.59599643 -365.1550293 340.90551758 C-368.84848006 345.09846638 -372.72533129 349.1223372 -376.5703125 353.17578125 C-379.43341545 356.20902761 -382.22832154 359.23505547 -384.8359375 362.4921875 C-385.55007813 363.31976562 -386.26421875 364.14734375 -387 365 C-387.66 365 -388.32 365 -389 365 C-404.6054302 310.3469213 -400.339232 255.05900053 -372.75 205 C-359.99166959 182.42462272 -341.60155827 161.69147692 -321 146 C-320.38624512 145.52626953 -319.77249023 145.05253906 -319.14013672 144.56445312 C-298.29394837 128.57313283 -274.50141176 115.49615989 -250 106 C-248.52592403 105.41826673 -247.05196129 104.83624647 -245.578125 104.25390625 C-232.86052388 99.27191732 -220.12238801 94.53241533 -207.02978516 90.61279297 C-204.66636674 89.89927598 -202.30783062 89.17065365 -199.94921875 88.44140625 C-188.51677765 84.91742799 -177.0510313 81.5587643 -165.51269531 78.3972168 C-160.27554664 76.95463603 -155.10801422 75.41067905 -149.96679688 73.65673828 C-147.316901 72.77190463 -144.63417576 72.04085116 -141.9375 71.3125 C-132.23666869 68.56914663 -122.70598352 65.3143913 -113.16210938 62.07324219 C-111.06808777 61.36251651 -108.9730451 60.65479158 -106.87695312 59.95019531 C-91.7277962 54.86041836 -91.7277962 54.86041836 -77.08984375 48.48828125 C-74.14771286 47.07114867 -71.17952493 45.77529058 -68.17504883 44.4987793 C-44.41869845 34.3732609 -21.7336652 20.49225263 -3.8125 1.70703125 C-2 0 -2 0 0 0 Z " fill="#201D1E" transform="translate(756,247)"/>
<path d="M0 0 C0.66 0 1.32 0 2 0 C2.26554688 1.07378906 2.53109375 2.14757812 2.8046875 3.25390625 C3.16139421 4.6901201 3.51816866 6.12631712 3.875 7.5625 C4.04902344 8.26697266 4.22304688 8.97144531 4.40234375 9.69726562 C5.21362949 12.95743238 6.05424085 16.17854281 7.03125 19.39453125 C9.27586554 27.74848345 10.11406637 36.4122943 11 45 C11.1537207 46.46493896 11.1537207 46.46493896 11.31054688 47.95947266 C12.76901428 63.7870377 12.76901428 63.7870377 8.9609375 68.55078125 C6.06414712 70.3664928 3.13887622 71.65147423 0 73 C-1.97908682 74.33621567 -3.91663567 75.73562005 -5.8125 77.1875 C-6.80765625 77.94675781 -7.8028125 78.70601563 -8.828125 79.48828125 C-24.78545122 91.80279593 -24.78545122 91.80279593 -38.20947266 106.67163086 C-42.71310389 112.70596746 -48.57588682 115.04247124 -55.375 117.9375 C-56.49261719 118.43056641 -57.61023438 118.92363281 -58.76171875 119.43164062 C-61.50115971 120.63746293 -64.24673241 121.82617813 -67 123 C-67.33 122.34 -67.66 121.68 -68 121 C-66.78759766 118.36474609 -66.78759766 118.36474609 -64.9140625 115.0234375 C-64.58180161 114.42587646 -64.24954071 113.82831543 -63.9072113 113.21264648 C-62.82052397 111.26253543 -61.72272325 109.31891652 -60.625 107.375 C-59.87740047 106.03640168 -59.1305751 104.69737069 -58.38452148 103.35791016 C-55.3680532 97.95082052 -52.32846282 92.55733035 -49.24609375 87.1875 C-41.30231296 73.33965008 -34.37616201 59.04785046 -29 44 C-29.91397486 45.37096229 -30.82790878 46.74195189 -31.74169922 48.11303711 C-32.60210486 49.40331169 -33.46313679 50.6931688 -34.32470703 51.98266602 C-37.16610162 56.23798115 -39.99176997 60.50314298 -42.8046875 64.77734375 C-49.11467417 74.34110874 -55.45181494 83.81372548 -62.41699219 92.91381836 C-72.32608211 105.91407725 -81.7623624 119.40382604 -90.08251953 133.48046875 C-91.00525876 135.01795681 -91.99542265 136.51469142 -93 138 C-93.66 138 -94.32 138 -95 138 C-95.21615967 137.09870361 -95.43231934 136.19740723 -95.6550293 135.26879883 C-96.47748322 131.85818179 -97.30786129 128.44968383 -98.14331055 125.04223633 C-98.50023997 123.57977045 -98.85418592 122.11657252 -99.20483398 120.65258789 C-101.49385158 111.10682783 -104.20367439 102.0771434 -108 93 C-107.91435791 93.59949463 -107.82871582 94.19898926 -107.74047852 94.81665039 C-106.82698568 101.21110026 -105.91349284 107.60555013 -105 114 C-104.82581543 115.10287354 -104.65163086 116.20574707 -104.47216797 117.34204102 C-103.69026415 123.39957203 -103.65910744 129.46123818 -103.5949707 135.56005859 C-103.5733706 137.09999998 -103.53924266 138.63981792 -103.49243164 140.17919922 C-103.03935499 155.27422985 -103.03935499 155.27422985 -108.14379883 161.54443359 C-110.60353501 164.79841577 -112.32290989 168.28246084 -114.12890625 171.9296875 C-114.48910355 172.65135101 -114.84930084 173.37301453 -115.22041321 174.11654663 C-115.96323862 175.61011086 -116.70345149 177.10497705 -117.44116211 178.60107422 C-118.558103 180.86608347 -119.68349521 183.12672619 -120.81054688 185.38671875 C-124.69177891 193.19156206 -128.47666372 201.02528174 -132 209 C-133.82603057 206.26095414 -134.73407431 204.17895961 -135.76953125 201.09765625 C-136.09816162 200.13126221 -136.42679199 199.16486816 -136.76538086 198.16918945 C-137.28370483 196.63137817 -137.28370483 196.63137817 -137.8125 195.0625 C-140.60989304 186.90922187 -143.47380315 178.87131919 -147 171 C-147.35803711 170.19804199 -147.71607422 169.39608398 -148.08496094 168.56982422 C-150.70529171 162.70502463 -153.34525326 156.84929489 -156 151 C-156 169.83079608 -148.97788162 191.62341723 -144.3125 209.8125 C-143.53749902 212.87396464 -142.76779298 215.93672129 -142 219 C-141.55527344 220.75763672 -141.55527344 220.75763672 -141.1015625 222.55078125 C-139.75628212 228.77863809 -140.03500315 232.49331467 -142.78515625 238.234375 C-144.75559742 242.72013819 -145.78422149 247.45296893 -146.97265625 252.19140625 C-147.71326653 254.93701472 -148.51633139 257.53675181 -149.453125 260.2109375 C-151.32767875 265.72748139 -152.49785565 271.36586467 -153.6875 277.0625 C-153.91244141 278.11888672 -154.13738281 279.17527344 -154.36914062 280.26367188 C-154.91736863 282.84150996 -155.46088436 285.42024369 -156 288 C-160.69871257 286.43376248 -162.92306399 282.76967957 -166 279 C-166.77988281 278.04480469 -167.55976563 277.08960938 -168.36328125 276.10546875 C-186.24417377 253.76577242 -199.03520886 225.89122866 -200 197 C-200.03786621 196.12827148 -200.07573242 195.25654297 -200.11474609 194.35839844 C-200.89582869 174.59074679 -199.12179942 154.89467755 -190 137 C-189.42507812 135.82695312 -188.85015625 134.65390625 -188.2578125 133.4453125 C-181.14923108 119.2956593 -171.9513242 107.36458171 -161 96 C-160.24589844 95.17113281 -159.49179687 94.34226562 -158.71484375 93.48828125 C-140.79550135 74.40095427 -115.63486544 61.59469584 -92.37011719 50.17333984 C-89.66829001 48.8357851 -86.9784257 47.47572028 -84.2890625 46.11328125 C-75.23358994 41.53479373 -66.20332615 36.99891254 -56.875 33 C-42.8916967 26.96374414 -29.70245712 19.22954861 -16.5625 11.5625 C-15.89532959 11.17400879 -15.22815918 10.78551758 -14.54077148 10.38525391 C-11.29306793 8.46342294 -8.19561549 6.44845928 -5.15234375 4.21484375 C-2 2 -2 2 0 2 C0 1.34 0 0.68 0 0 Z " fill="#1E1C1D" transform="translate(430,296)"/>
<path d="M0 0 C1.12472717 -0.00108765 2.24945435 -0.00217529 3.40826416 -0.0032959 C25.23942601 -0.00088977 46.87053644 1.17331112 68.625 2.9375 C69.67695557 3.02231628 70.72891113 3.10713257 71.81274414 3.19451904 C86.50576252 4.3930725 101.13688897 5.8649628 115.75 7.8125 C116.53542175 7.91655151 117.32084351 8.02060303 118.13006592 8.12780762 C125.92304279 9.17154857 133.58665575 10.40331626 141.25 12.1875 C143.0577732 12.41612321 144.87045801 12.61335844 146.6875 12.75 C151.04297597 13.08398799 151.04297597 13.08398799 153.25 14.1875 C155.3859215 14.46155917 157.52196461 14.63195243 159.66796875 14.80859375 C162.24841226 15.187267 164.63271997 15.87560815 167.12768555 16.61889648 C171.70995252 17.8465624 176.40480292 18.61339059 181.0625 19.5 C190.80135603 21.40648516 200.31999424 23.64393131 209.82861328 26.47216797 C212.56717401 27.28120033 215.31234678 28.06512111 218.05859375 28.84765625 C242.36276251 35.79998104 265.63251625 44.01819432 288.5 54.875 C289.42772217 55.31416748 290.35544434 55.75333496 291.3112793 56.20581055 C297.50950106 59.19888522 303.40648654 62.55225438 309.25 66.1875 C304.61455702 67.70364682 301.41439016 65.89577235 297.125 64.0625 C286.22459162 59.60344497 275.08147436 56.62862936 263.67089844 53.79272461 C260.5376049 53.00940122 257.40771187 52.21290126 254.27734375 51.41796875 C245.94364012 49.30558657 237.60022834 47.23353931 229.25 45.1875 C228.24517578 44.94064453 227.24035156 44.69378906 226.20507812 44.43945312 C185.29779076 34.55077014 143.05829735 30.28285024 101.25 26.1875 C100.22092529 26.08503967 99.19185059 25.98257935 98.1315918 25.87701416 C66.38477083 22.75071762 34.55437559 22.93313006 2.6875 22.9375 C1.62618111 22.93756672 0.56486221 22.93763344 -0.52861786 22.93770218 C-30.5054574 22.94757505 -60.26306738 23.41405302 -90.15380859 25.86206055 C-93.40802398 26.12769568 -96.66291104 26.38358779 -99.91796875 26.63867188 C-109.64436201 27.41523878 -119.28783153 28.28333339 -128.93261719 29.77905273 C-133.49939487 30.44111678 -138.04997737 30.63994542 -142.65820312 30.84179688 C-145.99165306 30.72771259 -145.99165306 30.72771259 -148.75 32.1875 C-150.72250317 32.50322555 -152.70420246 32.7612904 -154.6875 33 C-198.01687637 38.4876396 -243.34703562 45.16295691 -284.94140625 58.953125 C-288.62878238 60.17537278 -292.35675006 61.22135815 -296.09887695 62.26196289 C-321.26352699 69.26746405 -345.52935564 78.47669832 -369.75 88.1875 C-369.75 87.5275 -369.75 86.8675 -369.75 86.1875 C-367.55207288 84.62687848 -365.3637538 83.207866 -363.0625 81.8125 C-362.34771484 81.37478271 -361.63292969 80.93706543 -360.89648438 80.48608398 C-358.52112672 79.0416166 -356.13664462 77.61323232 -353.75 76.1875 C-352.94739746 75.70394043 -352.14479492 75.22038086 -351.31787109 74.72216797 C-333.42117654 63.99408793 -314.70069489 54.92800618 -295.0078125 47.99462891 C-292.35947102 47.04789265 -289.72729329 46.06136204 -287.09375 45.07421875 C-273.38272223 39.97697312 -259.59247631 35.71075873 -245.46435547 31.93261719 C-242.91375934 31.23245354 -240.38476336 30.4840754 -237.85546875 29.7109375 C-220.92035776 24.56971151 -203.46325689 19.90058413 -185.94140625 17.29296875 C-178.57226641 16.17359912 -171.22460848 14.9399791 -163.87487793 13.70111084 C-159.07606197 12.89463718 -154.27524582 12.10014753 -149.47457886 11.30477905 C-146.04703025 10.73659107 -142.620152 10.16545741 -139.19482422 9.58398438 C-93.16665528 1.77899196 -46.60830827 0.02418405 0 0 Z " fill="#222021" transform="translate(540.75,669.8125)"/>
<path d="M0 0 C0.66 0.33 1.32 0.66 2 1 C1.73445313 2.1859375 1.46890625 3.371875 1.1953125 4.59375 C0.83817024 6.2290856 0.48142117 7.86450709 0.125 9.5 C-0.04902344 10.27214844 -0.22304688 11.04429687 -0.40234375 11.83984375 C-3.47543419 26.06711431 -4.32790457 39.98511372 -4.26074219 54.4921875 C-4.24995857 57.26063653 -4.26073828 60.02844467 -4.2734375 62.796875 C-4.2791989 71.2408277 -4.16362121 79.38263606 -2.44091797 87.68945312 C-1.83741065 90.85201861 -1.85419402 93.79226843 -2 97 C-9.1863327 99.69666776 -16.37697638 101.65439857 -23.875 103.25 C-24.68300049 103.42499023 -25.49100098 103.59998047 -26.32348633 103.78027344 C-30.62153489 104.66562423 -34.58512662 105.19874028 -39 105 C-39.80719921 114.67197626 -40.10789279 124.29522269 -40.125 134 C-40.12951172 135.0614624 -40.13402344 136.1229248 -40.13867188 137.21655273 C-40.12788843 142.91425609 -39.81508658 148.36283632 -39 154 C-38.53836576 158.91905341 -38.4937002 162.05490704 -40.875 166.5 C-43.01070364 169.01259252 -43.7946712 169.83423769 -46.98828125 170.2734375 C-47.75527344 170.30695313 -48.52226562 170.34046875 -49.3125 170.375 C-50.07175781 170.42398438 -50.83101563 170.47296875 -51.61328125 170.5234375 C-55.29334905 169.71635225 -56.73363688 167.93993257 -59 165 C-59.55859375 161.890625 -59.55859375 161.890625 -59.4375 158.25 C-59.41937256 157.58403809 -59.40124512 156.91807617 -59.38256836 156.23193359 C-59.29681508 153.8174009 -59.1546159 151.41112456 -59 149 C-58.93329102 147.95811523 -58.86658203 146.91623047 -58.79785156 145.84277344 C-58.42214796 140.25881822 -58.00450201 134.67844369 -57.53515625 129.1015625 C-57.456604 128.16650879 -57.37805176 127.23145508 -57.29711914 126.26806641 C-57 124 -57 124 -56 122 C-55.6758746 119.7753211 -55.39092657 117.5448836 -55.125 115.3125 C-54.13305839 107.45726717 -52.66574689 99.74038292 -51 92 C-50.84772949 91.28408691 -50.69545898 90.56817383 -50.53857422 89.83056641 C-47.66177078 76.35378122 -44.45706802 63.05235956 -40 50 C-39.60421753 48.83730591 -39.60421753 48.83730591 -39.20043945 47.65112305 C-37.76308697 43.45119031 -36.28782582 39.26793571 -34.77734375 35.09375 C-33.66143078 31.98940906 -32.68519606 28.91665439 -31.87890625 25.71875 C-30.12784828 19.40772691 -28.30047542 15.51627979 -22.6796875 12.03125 C-18.66733927 9.81745928 -14.53887894 7.93424369 -10.33691406 6.11230469 C-7.22947582 4.63325239 -4.4360675 2.79348656 -1.60693359 0.84228516 C-1.07664551 0.56433105 -0.54635742 0.28637695 0 0 Z " fill="#1E1C1C" transform="translate(340,492)"/>
<path d="M0 0 C-0.42410156 0.58265625 -0.84820312 1.1653125 -1.28515625 1.765625 C-8.80294489 12.27400648 -14.81318 23.17569267 -20 35 C-20.26731934 35.60199219 -20.53463867 36.20398438 -20.81005859 36.82421875 C-24.38774978 44.51578231 -24.38774978 44.51578231 -26.6171875 52.64453125 C-28.39890548 56.96796555 -30.20099386 57.61426329 -34.37890625 59.36132812 C-35.61447266 59.8321582 -35.61447266 59.8321582 -36.875 60.3125 C-38.49747216 60.97507354 -40.1198705 61.63782789 -41.7421875 62.30078125 C-42.4626123 62.58091064 -43.18303711 62.86104004 -43.92529297 63.1496582 C-46.03322925 63.97326639 -46.03322925 63.97326639 -48.07861328 65.10620117 C-50 66 -50 66 -53 66 C-50.78872368 58.73437782 -47.80503745 52.14277963 -44.375 45.375 C-43.84302002 44.31901611 -43.31104004 43.26303223 -42.76293945 42.17504883 C-39.11476216 35.00849728 -35.2979178 28.00419166 -31 21.20703125 C-29.69977205 19.12209541 -28.46547647 16.99405641 -27.3125 14.82421875 C-22.9888993 6.97729921 -18.37417244 4.70427821 -10 2 C-8.63809401 1.39204899 -7.28215636 0.77020666 -5.9375 0.125 C-3 -1 -3 -1 0 0 Z " fill="#1D1B1C" transform="translate(374,426)"/>
<path d="M0 0 C-1.4562545 0.67119549 -2.91507867 1.33681807 -4.375 2 C-5.59316406 2.556875 -5.59316406 2.556875 -6.8359375 3.125 C-9 4 -9 4 -11 4 C-11 3.34 -11 2.68 -11 2 C-11.99 1.67 -12.98 1.34 -14 1 C-12.41913952 0.63495397 -10.83516093 0.28339494 -9.25 -0.0625 C-8.36828125 -0.25972656 -7.4865625 -0.45695312 -6.578125 -0.66015625 C-4.01320972 -0.99825872 -2.42908361 -0.81158635 0 0 Z " fill="#0E0C0D" transform="translate(651,503)"/>
<path d="M0 0 C0.33 0 0.66 0 1 0 C0.53199289 4.05606165 0.12046792 7.46588679 -2 11 C-2.66 10.67 -3.32 10.34 -4 10 C-2.8905928 6.51329166 -1.73662334 3.22515763 0 0 Z " fill="#090708" transform="translate(707,325)"/>
</svg>
