<svg viewBox="0 0 1024 1024" xmlns="http://www.w3.org/2000/svg">
  <path d="M512 928c-229.7 0-416-186.3-416-416S282.3 96 512 96s416 186.3 416 416-186.3 416-416 416zm0-768c-194.4 0-352 157.6-352 352s157.6 352 352 352 352-157.6 352-352-157.6-352-352-352z" fill="currentColor"/>
  <path d="M704 448c-32-64-96-128-192-128s-160 64-192 128c-32 64-32 160 0 224 32 64 96 128 192 128s160-64 192-128c32-64 32-160 0-224zm-192 288c-64 0-112-48-128-96-16-48-16-128 0-176 16-48 64-96 128-96s112 48 128 96c16 48 16 128 0 176-16 48-64 96-128 96z" fill="currentColor"/>
  <path d="M512 384c-32 0-64 32-64 64s32 64 64 64 64-32 64-64-32-64-64-64z" fill="currentColor"/>
</svg>